<?xml version="1.0" encoding="UTF-8"?>
<svg id="Capa_2" data-name="Capa 2" xmlns="http://www.w3.org/2000/svg" viewBox="0 0 500 266.95">
  <defs>
    <style>
      .cls-1 {
        fill: #fff;
      }
    </style>
  </defs>
  <g id="Capa_1-2" data-name="Capa 1">
    <g>
      <rect class="cls-1" width="500" height="165.35"/>
      <g>
        <path d="M28.48,142.81L46.01,22.32l41.91.04,18.71,65.55,19.41-65.24,40.11-.4,19.41,120.53h-38.89l-5.72-65.59-18.65,65.24c-1.23.81-26.4.77-29.43.39-.84-.11-1.71.07-2.27-.78l-18.66-64.83-5.73,65.58H28.48Z"/>
        <path d="M392.98,22.33v69.01c0,4.31,2.43,12.74,5.01,16.35,6.35,8.88,23.17,9.43,30.86,1.98,3.21-3.11,6.84-12.52,6.84-16.8V22.33h35.84v78.93c0,7.76-6.71,23.33-11.81,29.37-20.03,23.73-76.26,22.89-93.74-3.89-3.8-5.82-8.84-20.2-8.84-27V22.33h35.84Z"/>
        <polygon points="270.21 22.33 294.23 113.08 318.63 22.33 354.09 22.33 315.89 142.73 273.61 142.86 233.6 22.33 270.21 22.33"/>
        <rect x="194.71" y="22.33" width="36.6" height="120.48"/>
      </g>
      <g>
        <path class="cls-1" d="M11.45,244.02c3.29,2.24,11.87,8.42,26.92,8.42,8.16,0,13.25-2.88,13.25-8.11,0-13.44-47.7-6.08-47.7-32.95,0-11.3,9.54-21.22,30.63-21.22,18.66,0,27.88,5.87,32.22,8.75l-7.42,12.37c-3.39-2.45-11.13-6.61-24.8-6.61-10.07,0-12.83,3.2-12.83,6.5,0,12.26,47.91,4.8,47.7,31.89-.11,13.65-11.98,23.89-31.8,23.89s-30.85-7.79-34.03-10.02l7.84-12.9Z"/>
        <path class="cls-1" d="M73.99,191.13h63.71v14.5h-23v60.15h-17.81v-60.15h-22.9v-14.5Z"/>
        <path class="cls-1" d="M147.87,237.09v-45.96h17.81v46.07c0,8.21,5.19,15.25,14.84,15.25s14.95-7.04,14.95-15.25l-.11-46.07h17.81l.11,46.07c0,19.41-15.16,29.75-32.65,29.75s-32.75-10.34-32.75-29.86Z"/>
        <path class="cls-1" d="M260.87,191.13c23.64,0,39.12,15.68,39.01,37.33,0,22.4-15.58,37.33-39.01,37.33h-31.91v-74.65h31.91ZM260.87,251.27c12.3,0,21.2-9.7,21.2-22.82.11-13.54-8.59-22.82-21.2-22.82h-14.1v45.64h14.1Z"/>
        <path class="cls-1" d="M330.93,265.78h-17.81v-74.65h17.81v74.65Z"/>
        <path class="cls-1" d="M384.14,189.95c22.79,0,40.07,16.96,39.96,38.29-.11,21.65-17.38,38.71-39.96,38.71s-39.96-17.38-39.96-38.71,17.38-38.29,39.96-38.29ZM384.14,251.7c12.3,0,22.26-10.66,22.26-23.46-.11-12.8-9.96-22.93-22.26-22.93s-22.16,10.13-22.16,22.93,9.96,23.46,22.16,23.46Z"/>
        <path class="cls-1" d="M440,244.02c3.29,2.24,11.87,8.42,26.92,8.42,8.16,0,13.25-2.88,13.25-8.11,0-13.44-47.7-6.08-47.7-32.95,0-11.3,9.54-21.22,30.63-21.22,18.66,0,27.88,5.87,32.23,8.75l-7.42,12.37c-3.39-2.45-11.13-6.61-24.8-6.61-10.07,0-12.83,3.2-12.83,6.5,0,12.26,47.91,4.8,47.7,31.89-.11,13.65-11.98,23.89-31.8,23.89s-30.85-7.79-34.03-10.02l7.84-12.9Z"/>
      </g>
    </g>
  </g>
</svg>